<svg xmlns="http://www.w3.org/2000/svg" width="393" height="143.77"><defs><clipPath id="a" clipPathUnits="userSpaceOnUse"><path d="M56.693 701.105h481.89v112.438H56.693V701.105z"/></clipPath></defs><path d="M0 0v19.467h-10.138v5.899h28.242v-5.899H8.141V0H0z" style="fill:#231f20;fill-opacity:1;fill-rule:nonzero;stroke:none" transform="matrix(2.51703 0 0 -2.51703 27.66 139.816)"/><path d="M248.622 768.632h8.276v-25.366h-8.276v25.366z" style="fill:#231f20;fill-opacity:1;fill-rule:nonzero;stroke:none" transform="matrix(2.51703 0 0 -2.51703 -546.308 2010.636)"/><path d="M0 0v19.467h-10.138v5.899h28.242v-5.899h-9.95V0H0z" style="fill:#231f20;fill-opacity:1;fill-rule:nonzero;stroke:none" transform="matrix(2.51703 0 0 -2.51703 345.644 139.816)"/><path d="M0 0c-.013 8.829 6.575 13.203 14.688 13.203 8.114 0 14.675-4.927 14.688-13.203.014-8.329-6.574-13.19-14.688-13.19C6.575-13.19 0-9.383 0 0m8.221 0c0-4.806 1.864-8.708 6.467-8.708 4.293 0 6.332 3.902 6.332 8.708s-2.349 8.707-6.332 8.707c-4.671 0-6.467-3.901-6.467-8.707" style="fill:#231f20;fill-opacity:1;fill-rule:nonzero;stroke:none" transform="matrix(2.51703 0 0 -2.51703 248.564 107.74)"/><path d="M0 0c-4.441.904-8.681 4.185-8.356 9.031h7.721c.473-1.039.284-2.106.999-3.105.392-.553.838-1.026 1.391-1.309.445-.23.864-.513 1.35-.635 1.282-.323 2.605-.364 3.82.041.891.283 1.688.891 2.093 1.795.229.487.216 1.067.041 1.593-.109.297-.297.581-.446.824-.594.931-1.661 1.161-2.673 1.485-4.482 1.404-10.395.837-12.852 5.562-.729 1.404-.77 2.983-.391 4.563.269 1.12.998 2.038 1.781 2.781.73.702 1.553 1.39 2.525 1.822 4.752 2.147 10.22 1.917 14.863-.121 2.768-1.202 5.049-3.767 5.157-6.966h-7.33c-.338 1.296-.999 2.43-2.146 3.199-1.432.932-3.065 1.04-4.685.621-1.229-.324-2.578-1.376-2.065-2.794.296-.851 1.201-1.242 2.065-1.472 4.09-1.107 8.181-1.323 11.893-3.577a5.783 5.783 0 0 0 2.795-5.049c-.083-6.65-6.364-8.805-12.386-8.806C3.362-.517 1.583-.323 0 0" style="fill:#231f20;fill-opacity:1;fill-rule:nonzero;stroke:none" transform="matrix(2.51703 0 0 -2.51703 198.512 140.326)"/><path d="M0 0c-4.441.904-8.667 4.185-8.343 9.031h7.709c.472-1.039.283-2.119.999-3.104.405-.554.837-1.026 1.404-1.31.432-.23.85-.5 1.349-.635 1.283-.323 2.593-.351 3.808.041.904.284 1.687.891 2.106 1.795.216.487.216 1.067.027 1.593-.108.297-.284.581-.446.824-.58.932-1.647 1.161-2.66 1.485-4.495 1.404-10.408.837-12.865 5.562-.715 1.404-.756 2.984-.391 4.563.27 1.12.999 2.038 1.781 2.781.743.702 1.553 1.39 2.525 1.822 4.766 2.147 10.233 1.917 14.877-.121 2.754-1.202 5.035-3.767 5.157-6.966H9.693c-.337 1.296-.985 2.43-2.146 3.186-1.418.945-3.051 1.053-4.685.635-1.215-.325-2.565-1.377-2.065-2.795.31-.851 1.215-1.242 2.065-1.471 4.091-1.108 8.194-1.324 11.907-3.578a5.798 5.798 0 0 0 2.795-5.049c-.094-6.646-6.37-8.811-12.39-8.811C3.368-.522 1.586-.327 0 0" style="fill:#231f20;fill-opacity:1;fill-rule:nonzero;stroke:none" transform="matrix(2.51703 0 0 -2.51703 128.071 140.054)"/><g clip-path="url(#a)" transform="matrix(2.51703 0 0 -2.51703 -546.308 2010.636)"><path d="M272.301 798.008h21.803v-21.384h-21.803v21.384zm2.916-6.494h5.683v-12.271h4.914v12.271h5.589v3.632h-16.186v-3.632z" style="fill:#231f20;fill-opacity:1;fill-rule:nonzero;stroke:none"/><path d="M0 0v12.271h-5.684v3.632h16.187v-3.632H4.914V0H0z" style="fill:#fff;fill-opacity:1;fill-rule:nonzero;stroke:none" transform="translate(280.9 779.243)"/><path d="M296.682 798.103h21.843v-21.56h-21.843v21.56zm2.997-13.109h5.602v-5.562h4.725v5.562h5.603v4.792h-5.603v5.522h-4.725v-5.522h-5.602v-4.792z" style="fill:#ed1c24;fill-opacity:1;fill-rule:nonzero;stroke:none"/><path d="M0 0v5.562h-5.603v4.792H0v5.522h4.725v-5.522h5.602V5.562H4.725V0H0z" style="fill:#fff;fill-opacity:1;fill-rule:nonzero;stroke:none" transform="translate(305.281 779.432)"/></g></svg>