<svg width="30" height="30" viewBox="0 0 30 30" fill="none" xmlns="http://www.w3.org/2000/svg">
<path d="M24.375 15C24.3747 13.5282 24.0275 12.0772 23.3618 10.7646C22.696 9.45195 21.7303 8.31467 20.543 7.44492L19.8117 3.41602C19.7335 2.98377 19.506 2.59272 19.1689 2.31108C18.8318 2.02945 18.4065 1.87511 17.9672 1.875H12.0328C11.5936 1.87511 11.1683 2.02945 10.8312 2.31108C10.4941 2.59272 10.2665 2.98377 10.1883 3.41602L9.45705 7.44492C8.2694 8.31438 7.30346 9.45159 6.63761 10.7643C5.97176 12.0769 5.62476 13.5281 5.62476 15C5.62476 16.4719 5.97176 17.9231 6.63761 19.2357C7.30346 20.5484 8.2694 21.6856 9.45705 22.5551L10.1883 26.584C10.2665 27.0162 10.4941 27.4073 10.8312 27.6889C11.1683 27.9706 11.5936 28.1249 12.0328 28.125H17.9672C18.4065 28.1249 18.8318 27.9706 19.1689 27.6889C19.506 27.4073 19.7335 27.0162 19.8117 26.584L20.543 22.5551C21.7303 21.6853 22.696 20.548 23.3618 19.2354C24.0275 17.9228 24.3747 16.4718 24.375 15ZM12.0328 3.75H17.9672L18.4254 6.27539C16.2241 5.40823 13.7759 5.40823 11.5746 6.27539L12.0328 3.75ZM7.50002 15C7.50002 13.5166 7.93988 12.0666 8.764 10.8332C9.58811 9.59985 10.7594 8.63856 12.1299 8.0709C13.5003 7.50325 15.0083 7.35472 16.4632 7.64411C17.9181 7.9335 19.2544 8.6478 20.3033 9.6967C21.3522 10.7456 22.0665 12.082 22.3559 13.5368C22.6453 14.9917 22.4968 16.4997 21.9291 17.8701C21.3615 19.2406 20.4002 20.4119 19.1668 21.236C17.9334 22.0601 16.4834 22.5 15 22.5C13.0116 22.4978 11.1052 21.707 9.69912 20.3009C8.29306 18.8949 7.50219 16.9885 7.50002 15ZM17.9672 26.25H12.0328L11.5746 23.7246C13.7759 24.5918 16.2241 24.5918 18.4254 23.7246L17.9672 26.25ZM14.0625 15V10.3125C14.0625 10.0639 14.1613 9.8254 14.3371 9.64959C14.5129 9.47377 14.7514 9.375 15 9.375C15.2487 9.375 15.4871 9.47377 15.6629 9.64959C15.8387 9.8254 15.9375 10.0639 15.9375 10.3125V14.0625H19.6875C19.9362 14.0625 20.1746 14.1613 20.3504 14.3371C20.5262 14.5129 20.625 14.7514 20.625 15C20.625 15.2486 20.5262 15.4871 20.3504 15.6629C20.1746 15.8387 19.9362 15.9375 19.6875 15.9375H15C14.7514 15.9375 14.5129 15.8387 14.3371 15.6629C14.1613 15.4871 14.0625 15.2486 14.0625 15Z" fill="white"/>
</svg>
