<svg width="30" height="30" viewBox="0 0 30 30" fill="none" xmlns="http://www.w3.org/2000/svg">
<path d="M13.4626 22.875C11.6009 22.875 9.78113 22.323 8.23325 21.2887C6.68537 20.2544 5.47895 18.7844 4.76654 17.0645C4.05413 15.3446 3.86773 13.4521 4.23091 11.6262C4.5941 9.80037 5.49055 8.12322 6.80691 6.80686C8.12327 5.4905 9.80042 4.59404 11.6263 4.23086C13.4521 3.86767 15.3447 4.05407 17.0646 4.76648C18.7845 5.47889 20.2545 6.68532 21.2888 8.23319C22.323 9.78107 22.8751 11.6009 22.8751 13.4625C22.8751 14.6986 22.6316 15.9225 22.1586 17.0645C21.6855 18.2065 20.9922 19.2441 20.1182 20.1181C19.2442 20.9922 18.2065 21.6855 17.0646 22.1585C15.9226 22.6315 14.6986 22.875 13.4626 22.875ZM13.4626 5.9375C11.9792 5.9375 10.5291 6.37737 9.29578 7.20148C8.06241 8.02559 7.10111 9.19693 6.53346 10.5674C5.9658 11.9378 5.81727 13.4458 6.10666 14.9007C6.39605 16.3555 7.11036 17.6919 8.15925 18.7408C9.20815 19.7897 10.5445 20.504 11.9994 20.7934C13.4542 21.0828 14.9622 20.9343 16.3327 20.3666C17.7031 19.7989 18.8745 18.8376 19.6986 17.6043C20.5227 16.3709 20.9626 14.9209 20.9626 13.4375C20.9626 11.4484 20.1724 9.54072 18.7659 8.1342C17.3593 6.72768 15.4517 5.9375 13.4626 5.9375Z" fill="white"/>
<path d="M25 25.9375C24.8768 25.9381 24.7547 25.9141 24.641 25.8668C24.5272 25.8196 24.424 25.7501 24.3375 25.6625L19.175 20.5C19.0094 20.3223 18.9192 20.0872 18.9235 19.8443C18.9278 19.6015 19.0262 19.3697 19.1979 19.198C19.3697 19.0262 19.6014 18.9278 19.8443 18.9235C20.0872 18.9192 20.3222 19.0094 20.5 19.175L25.6625 24.3375C25.838 24.5133 25.9366 24.7516 25.9366 25C25.9366 25.2484 25.838 25.4867 25.6625 25.6625C25.5759 25.7501 25.4727 25.8196 25.3589 25.8668C25.2452 25.9141 25.1231 25.9381 25 25.9375Z" fill="white"/>
</svg>
