<svg width="30" height="30" viewBox="0 0 30 30" fill="none" xmlns="http://www.w3.org/2000/svg">
<path d="M24.375 10.3125H20.625V9.6875C20.625 8.19566 20.0324 6.76492 18.9775 5.71002C17.9226 4.65513 16.4918 4.0625 15 4.0625C13.5082 4.0625 12.0774 4.65513 11.0225 5.71002C9.96763 6.76492 9.375 8.19566 9.375 9.6875V10.3125H5.625C5.2106 10.3125 4.81317 10.4771 4.52015 10.7701C4.22712 11.0632 4.0625 11.4606 4.0625 11.875V22.5C4.0625 23.4117 4.42466 24.286 5.06932 24.9307C5.71398 25.5753 6.58832 25.9375 7.5 25.9375H22.5C23.4117 25.9375 24.286 25.5753 24.9307 24.9307C25.5753 24.286 25.9375 23.4117 25.9375 22.5V11.875C25.9375 11.4606 25.7729 11.0632 25.4799 10.7701C25.1868 10.4771 24.7894 10.3125 24.375 10.3125ZM11.25 9.6875C11.25 8.69294 11.6451 7.73911 12.3483 7.03585C13.0516 6.33259 14.0054 5.9375 15 5.9375C15.9946 5.9375 16.9484 6.33259 17.6517 7.03585C18.3549 7.73911 18.75 8.69294 18.75 9.6875V10.3125H11.25V9.6875ZM24.0625 22.5C24.0625 22.9144 23.8979 23.3118 23.6049 23.6049C23.3118 23.8979 22.9144 24.0625 22.5 24.0625H7.5C7.0856 24.0625 6.68817 23.8979 6.39515 23.6049C6.10212 23.3118 5.9375 22.9144 5.9375 22.5V12.1875H9.375V15C9.375 15.2486 9.47377 15.4871 9.64959 15.6629C9.8254 15.8387 10.0639 15.9375 10.3125 15.9375C10.5611 15.9375 10.7996 15.8387 10.9754 15.6629C11.1512 15.4871 11.25 15.2486 11.25 15V12.1875H18.75V15C18.75 15.2486 18.8488 15.4871 19.0246 15.6629C19.2004 15.8387 19.4389 15.9375 19.6875 15.9375C19.9361 15.9375 20.1746 15.8387 20.3504 15.6629C20.5262 15.4871 20.625 15.2486 20.625 15V12.1875H24.0625V22.5Z" fill="white"/>
</svg>
