<svg width="30" height="30" viewBox="0 0 30 30" fill="none" xmlns="http://www.w3.org/2000/svg">
<path d="M15 15.3125C14.0729 15.3125 13.1666 15.0376 12.3958 14.5225C11.6249 14.0074 11.0241 13.2754 10.6693 12.4188C10.3145 11.5623 10.2217 10.6198 10.4026 9.71051C10.5834 8.80123 11.0299 7.966 11.6854 7.31044C12.341 6.65488 13.1762 6.20844 14.0855 6.02757C14.9948 5.8467 15.9373 5.93953 16.7938 6.29431C17.6504 6.6491 18.3824 7.24991 18.8975 8.02076C19.4126 8.79162 19.6875 9.6979 19.6875 10.625C19.6875 11.8682 19.1936 13.0605 18.3146 13.9396C17.4355 14.8186 16.2432 15.3125 15 15.3125ZM15 7.8125C14.4437 7.8125 13.9 7.97745 13.4375 8.28649C12.9749 8.59553 12.6145 9.03479 12.4016 9.5487C12.1887 10.0626 12.133 10.6281 12.2415 11.1737C12.3501 11.7193 12.6179 12.2204 13.0113 12.6137C13.4046 13.0071 13.9057 13.2749 14.4513 13.3835C14.9969 13.492 15.5624 13.4363 16.0763 13.2234C16.5902 13.0105 17.0295 12.6501 17.3385 12.1875C17.6475 11.725 17.8125 11.1813 17.8125 10.625C17.8125 9.87908 17.5162 9.16371 16.9887 8.63626C16.4613 8.10882 15.7459 7.8125 15 7.8125ZM23.75 24.0625C23.5024 24.0593 23.2658 23.9595 23.0907 23.7843C22.9155 23.6092 22.8157 23.3726 22.8125 23.125C22.8125 20.6875 21.4875 19.0625 15 19.0625C8.5125 19.0625 7.1875 20.6875 7.1875 23.125C7.1875 23.3736 7.08873 23.6121 6.91291 23.7879C6.7371 23.9637 6.49864 24.0625 6.25 24.0625C6.00136 24.0625 5.7629 23.9637 5.58709 23.7879C5.41127 23.6121 5.3125 23.3736 5.3125 23.125C5.3125 17.1875 12.1 17.1875 15 17.1875C17.9 17.1875 24.6875 17.1875 24.6875 23.125C24.6843 23.3726 24.5845 23.6092 24.4093 23.7843C24.2342 23.9595 23.9976 24.0593 23.75 24.0625Z" fill="white"/>
</svg>
